<mxfile host="app.diagrams.net" modified="2024-07-02T18:03:21.606Z" agent="Mozilla/5.0 (X11; Linux x86_64) AppleWebKit/537.36 (KHTML, like Gecko) Chrome/126.0.0.0 Safari/537.36" etag="_80C2zlYNsvkj2U1v5A5" version="24.6.4" type="device">
  <diagram name="Page-1" id="N7CSGkip9kO2j4hPsalU">
    <mxGraphModel dx="1434" dy="776" grid="1" gridSize="10" guides="1" tooltips="1" connect="1" arrows="1" fold="1" page="1" pageScale="1" pageWidth="850" pageHeight="1100" math="0" shadow="0">
      <root>
        <mxCell id="0" />
        <mxCell id="1" parent="0" />
        <mxCell id="NI_6YuVFdutAxwEcf5af-3" style="edgeStyle=orthogonalEdgeStyle;rounded=0;orthogonalLoop=1;jettySize=auto;html=1;exitX=0.5;exitY=1;exitDx=0;exitDy=0;entryX=0.5;entryY=0;entryDx=0;entryDy=0;" parent="1" source="NI_6YuVFdutAxwEcf5af-1" target="NI_6YuVFdutAxwEcf5af-2" edge="1">
          <mxGeometry relative="1" as="geometry" />
        </mxCell>
        <mxCell id="NI_6YuVFdutAxwEcf5af-1" value="Start" style="rounded=1;whiteSpace=wrap;html=1;" parent="1" vertex="1">
          <mxGeometry x="365" y="20" width="120" height="60" as="geometry" />
        </mxCell>
        <mxCell id="NI_6YuVFdutAxwEcf5af-6" style="edgeStyle=orthogonalEdgeStyle;rounded=0;orthogonalLoop=1;jettySize=auto;html=1;exitX=0.5;exitY=1;exitDx=0;exitDy=0;entryX=0.5;entryY=0;entryDx=0;entryDy=0;" parent="1" source="NI_6YuVFdutAxwEcf5af-2" target="NI_6YuVFdutAxwEcf5af-4" edge="1">
          <mxGeometry relative="1" as="geometry" />
        </mxCell>
        <mxCell id="NI_6YuVFdutAxwEcf5af-2" value="Check whether the piece is the right colour and whether it is non-sliding" style="rounded=0;whiteSpace=wrap;html=1;" parent="1" vertex="1">
          <mxGeometry x="365" y="110" width="120" height="70" as="geometry" />
        </mxCell>
        <mxCell id="NI_6YuVFdutAxwEcf5af-7" style="edgeStyle=orthogonalEdgeStyle;rounded=0;orthogonalLoop=1;jettySize=auto;html=1;exitX=0.5;exitY=1;exitDx=0;exitDy=0;entryX=0.5;entryY=0;entryDx=0;entryDy=0;" parent="1" source="NI_6YuVFdutAxwEcf5af-4" target="NI_6YuVFdutAxwEcf5af-5" edge="1">
          <mxGeometry relative="1" as="geometry" />
        </mxCell>
        <mxCell id="NI_6YuVFdutAxwEcf5af-4" value="Check what type of piece it is and loop over the directions the piece can move" style="rounded=0;whiteSpace=wrap;html=1;" parent="1" vertex="1">
          <mxGeometry x="365" y="210" width="120" height="60" as="geometry" />
        </mxCell>
        <mxCell id="NI_6YuVFdutAxwEcf5af-24" style="edgeStyle=orthogonalEdgeStyle;rounded=0;orthogonalLoop=1;jettySize=auto;html=1;exitX=0.5;exitY=1;exitDx=0;exitDy=0;entryX=0.5;entryY=0;entryDx=0;entryDy=0;" parent="1" source="NI_6YuVFdutAxwEcf5af-5" target="NI_6YuVFdutAxwEcf5af-23" edge="1">
          <mxGeometry relative="1" as="geometry" />
        </mxCell>
        <mxCell id="NI_6YuVFdutAxwEcf5af-37" style="edgeStyle=orthogonalEdgeStyle;rounded=0;orthogonalLoop=1;jettySize=auto;html=1;exitX=1;exitY=1;exitDx=0;exitDy=0;entryX=0.5;entryY=1;entryDx=0;entryDy=0;" parent="1" source="NI_6YuVFdutAxwEcf5af-5" target="NI_6YuVFdutAxwEcf5af-20" edge="1">
          <mxGeometry relative="1" as="geometry" />
        </mxCell>
        <mxCell id="NI_6YuVFdutAxwEcf5af-5" value="Have we reached the edge or is another piece blocking our target square?" style="rhombus;whiteSpace=wrap;html=1;" parent="1" vertex="1">
          <mxGeometry x="343" y="300" width="167" height="150" as="geometry" />
        </mxCell>
        <mxCell id="NI_6YuVFdutAxwEcf5af-16" value="Yes" style="text;html=1;align=center;verticalAlign=middle;whiteSpace=wrap;rounded=0;" parent="1" vertex="1">
          <mxGeometry x="380" y="460" width="60" height="30" as="geometry" />
        </mxCell>
        <mxCell id="NI_6YuVFdutAxwEcf5af-17" value="No" style="text;html=1;align=center;verticalAlign=middle;whiteSpace=wrap;rounded=0;" parent="1" vertex="1">
          <mxGeometry x="500" y="390" width="60" height="30" as="geometry" />
        </mxCell>
        <mxCell id="NI_6YuVFdutAxwEcf5af-20" value="Ignore this target square and move onto the next direction" style="rounded=0;whiteSpace=wrap;html=1;" parent="1" vertex="1">
          <mxGeometry x="520" y="310" width="120" height="60" as="geometry" />
        </mxCell>
        <mxCell id="NI_6YuVFdutAxwEcf5af-28" style="edgeStyle=orthogonalEdgeStyle;rounded=0;orthogonalLoop=1;jettySize=auto;html=1;exitX=1;exitY=0.5;exitDx=0;exitDy=0;entryX=0;entryY=0.5;entryDx=0;entryDy=0;" parent="1" source="NI_6YuVFdutAxwEcf5af-23" target="NI_6YuVFdutAxwEcf5af-27" edge="1">
          <mxGeometry relative="1" as="geometry" />
        </mxCell>
        <mxCell id="NI_6YuVFdutAxwEcf5af-31" style="edgeStyle=orthogonalEdgeStyle;rounded=0;orthogonalLoop=1;jettySize=auto;html=1;exitX=0.5;exitY=1;exitDx=0;exitDy=0;" parent="1" source="NI_6YuVFdutAxwEcf5af-23" target="NI_6YuVFdutAxwEcf5af-32" edge="1">
          <mxGeometry relative="1" as="geometry">
            <mxPoint x="200" y="470" as="targetPoint" />
          </mxGeometry>
        </mxCell>
        <mxCell id="NI_6YuVFdutAxwEcf5af-23" value="Have we iterated over all directions?" style="rhombus;whiteSpace=wrap;html=1;" parent="1" vertex="1">
          <mxGeometry x="369.75" y="490" width="113.5" height="110" as="geometry" />
        </mxCell>
        <mxCell id="NI_6YuVFdutAxwEcf5af-25" value="Yes" style="text;html=1;align=center;verticalAlign=middle;whiteSpace=wrap;rounded=0;" parent="1" vertex="1">
          <mxGeometry x="483.25" y="520" width="60" height="30" as="geometry" />
        </mxCell>
        <mxCell id="NI_6YuVFdutAxwEcf5af-27" value="End" style="rounded=1;whiteSpace=wrap;html=1;" parent="1" vertex="1">
          <mxGeometry x="560" y="515" width="120" height="60" as="geometry" />
        </mxCell>
        <mxCell id="NI_6YuVFdutAxwEcf5af-30" value="No" style="text;html=1;align=center;verticalAlign=middle;whiteSpace=wrap;rounded=0;" parent="1" vertex="1">
          <mxGeometry x="343" y="590" width="60" height="30" as="geometry" />
        </mxCell>
        <mxCell id="NI_6YuVFdutAxwEcf5af-36" style="edgeStyle=orthogonalEdgeStyle;rounded=0;orthogonalLoop=1;jettySize=auto;html=1;exitX=0.5;exitY=0;exitDx=0;exitDy=0;entryX=0;entryY=0.5;entryDx=0;entryDy=0;" parent="1" source="NI_6YuVFdutAxwEcf5af-32" target="NI_6YuVFdutAxwEcf5af-5" edge="1">
          <mxGeometry relative="1" as="geometry" />
        </mxCell>
        <mxCell id="NI_6YuVFdutAxwEcf5af-32" value="Loop over the next set of directions" style="rounded=0;whiteSpace=wrap;html=1;" parent="1" vertex="1">
          <mxGeometry x="223" y="410" width="120" height="60" as="geometry" />
        </mxCell>
        <mxCell id="NI_6YuVFdutAxwEcf5af-38" style="edgeStyle=orthogonalEdgeStyle;rounded=0;orthogonalLoop=1;jettySize=auto;html=1;exitX=0;exitY=0.5;exitDx=0;exitDy=0;" parent="1" source="NI_6YuVFdutAxwEcf5af-20" edge="1">
          <mxGeometry relative="1" as="geometry">
            <mxPoint x="470" y="340" as="targetPoint" />
          </mxGeometry>
        </mxCell>
      </root>
    </mxGraphModel>
  </diagram>
</mxfile>
